<svg width="115" height="32" viewBox="0 0 115 32" fill="none" xmlns="http://www.w3.org/2000/svg">
<path d="M112.028 5.63839C111.388 3.98387 110.246 2.57099 108.763 1.5976C107.894 1.16679 106.972 0.851645 106.021 0.660156C105.787 1.59121 105.828 2.57027 106.138 3.47865C106.449 4.38703 107.017 5.18568 107.773 5.7778C108.375 6.28178 109.142 6.54654 109.926 6.52158C110.711 6.49661 111.459 6.18363 112.028 5.6424" fill="#B0559F"/>
<path d="M103.361 26.052C99.2313 27.1754 96.621 28.5775 91.8912 30.0302C90.3769 30.3756 88.9388 30.996 87.6484 31.8607C89.3444 31.9619 91.0462 31.8901 92.7277 31.6465C98.4355 30.7949 103.932 28.8757 108.929 25.9894C107.515 25.0034 106.072 25.2681 103.371 26.054" fill="#005E67"/>
<path d="M113.434 22.2746C115.535 19.3813 114.519 10.8957 112.02 5.64062C110.622 5.65275 109.191 5.69717 107.763 5.77596C106.441 7.70746 106.718 18.9631 105.958 21.5209C104.924 22.8786 105.164 23.7272 104.797 24.2929C104.494 24.7556 103.247 24.7556 103.354 26.0547C105.173 26.0992 107.064 26.083 108.912 25.99C110.641 25.0493 112.175 23.7892 113.434 22.2765" fill="#DA0006"/>
<path d="M89.1147 24.4444C87.3549 23.3675 83.89 22.7029 78.3945 24.3879C79.1934 26.7857 80.6724 28.8993 82.6515 30.4713C84.18 31.3195 85.8869 31.7957 87.6338 31.8613C89.1289 31.4754 90.6098 31.0531 92.0402 30.6187C92.0498 29.4357 91.7914 28.2658 91.2844 27.1969C90.7774 26.1279 90.0349 25.1876 89.1127 24.4464" fill="#25B18C"/>
<path d="M92.5763 24.2403C91.8106 23.7554 89.0931 23.5069 89.1173 24.4424C89.879 26.5948 90.8601 28.6631 92.045 30.6148C95.9672 29.4969 99.7597 27.9663 103.359 26.0486C101.773 24.4626 95.3543 25.3455 94.3118 24.4424C94.2532 24.3939 92.6308 24.2929 92.5742 24.2403" fill="#0099A0"/>
<path d="M105.317 24.4754C105.758 23.5535 105.98 22.5416 105.963 21.5195L105.889 21.6165C105.08 22.6267 99.5628 23.7197 92.5742 24.243C92.6308 24.2976 92.6873 24.3521 92.7459 24.4006C93.7884 25.3037 98.2596 25.9281 103.359 26.0533C104.112 25.6655 104.778 25.1286 105.317 24.4754Z" fill="#B10004"/>
<path d="M106.021 0.655498C99.6439 -0.389381 93.1249 -0.183479 86.8268 1.26165C84.7381 1.6971 82.7049 2.36601 80.7656 3.25579C82.6838 3.90072 84.694 4.22961 86.7177 4.22961C86.7177 4.22961 97.0964 4.47808 100.052 5.78326C100.805 5.98017 101.57 6.13131 102.341 6.23582C103.215 6.6029 104.163 6.7535 105.107 6.6747C106.051 6.5959 106.962 6.29003 107.762 5.78326C107.318 4.03259 106.733 2.32105 106.01 0.66561" fill="#991580"/>
<path d="M87.6973 11.6533C88.1778 8.76182 87.8765 5.79442 86.8245 3.05855C84.8041 3.03835 82.7533 3.0969 80.7633 3.24439C79.3867 3.83101 78.1749 4.74599 77.2337 5.90929C75.0113 9.04495 75.8093 18.0317 78.3914 24.3878C81.9615 24.5885 85.5395 24.6074 89.1116 24.4444C88.1742 20.2452 87.6999 15.9559 87.6973 11.6533Z" fill="#C4DB00"/>
<path d="M102.351 6.22387C102.007 5.76409 101.559 5.39232 101.044 5.13894C96.4611 3.62336 91.6491 2.91845 86.8242 3.0559C86.9103 5.93861 87.202 8.81151 87.697 11.6527C87.8513 11.2185 88.0812 10.8149 88.3759 10.4607C90.1518 8.42007 95.8514 6.97548 102.349 6.21783" fill="#88C701"/>
<path d="M87.6963 11.6523C86.6457 14.4445 87.365 19.5804 89.1106 24.4435C90.2925 24.3909 91.4482 24.3222 92.5716 24.2414C90.2158 22.019 88.6014 16.8933 87.6922 11.6564" fill="#0FAC07"/>
<path d="M108.338 8.55335C108.185 7.60983 107.995 6.67642 107.764 5.77734C105.946 5.87432 104.112 6.0258 102.344 6.23188C103.192 7.39603 103.841 8.69341 104.263 10.0707C105.469 13.7624 106.041 17.6315 105.956 21.5142C108.716 17.9906 109.062 13.1133 108.338 8.54725" fill="#9B0003"/>
<path d="M54.82 18.273C54.0161 18.273 53.2945 18.4901 52.788 18.4901C52.2433 18.4901 52.0604 17.258 52.0604 16.9706C52.0604 16.5365 52.4262 15.9656 55.5115 15.9656C56.6346 15.8853 57.7619 16.0438 58.8193 16.4308C59.8766 16.8178 60.84 17.4244 61.6459 18.2108C63.024 20.0138 63.6377 22.2865 63.3544 24.5381C63.3544 25.7321 63.3202 27.9551 63.2097 29.5852C63.2097 29.8364 63.1735 30.349 62.4056 30.3892C62.1122 30.4093 60.8379 30.3671 60.5525 30.4314C59.7967 30.5962 59.8047 30.9077 57.9777 31.4364C56.9739 31.7921 55.9172 31.9756 54.8522 31.979C53.6444 32.0435 52.4515 31.6884 51.4755 30.974C51.0744 30.6447 50.7523 30.2296 50.5328 29.7593C50.3133 29.2891 50.202 28.7755 50.2072 28.2566C50.2072 25.4004 53.2563 23.4106 56.5989 22.9724C57.7335 22.8493 58.8751 22.803 60.0159 22.8337C60.0159 21.6398 59.9434 18.2771 54.8261 18.2771L54.82 18.273ZM53.592 28.0053C53.592 29.0927 54.4301 29.8887 56.0622 29.8887C57.3895 29.8034 58.6872 29.4578 59.8812 28.8716C59.9515 27.8667 59.9876 25.4366 59.9876 24.3492C55.4552 24.8939 53.6 26.3793 53.6 28.0053" fill="white"/>
<path d="M44.5059 18.7506C44.9192 17.8034 45.6609 17.0375 46.5943 16.5939C47.4916 16.1854 48.4579 15.9495 49.4425 15.8984C49.8003 15.8984 49.947 15.8984 49.947 17.5446C49.947 18.3888 49.7661 18.423 47.8928 18.7908C44.9342 19.3375 44.8296 20.9817 44.7211 22.1535C44.5402 24.4951 44.5059 25.9965 44.4637 29.8717C44.4336 31.1903 44.4337 31.337 43.9633 31.4074C43.4371 31.4693 42.9072 31.4942 42.3774 31.4818C41.2277 31.4818 41.0469 31.4817 41.0469 30.531C41.0469 26.3262 41.298 17.0642 41.3704 16.7044C41.4427 16.409 41.5494 16.409 42.4177 16.409C42.673 16.409 43.8246 16.3387 44.0377 16.3387C44.506 16.3387 44.5059 16.6643 44.5059 17.3597V18.7506Z" fill="white"/>
<path d="M33.5547 18.7506C33.9714 17.8043 34.7138 17.0391 35.647 16.5939C36.5431 16.186 37.508 15.9501 38.4912 15.8984C38.855 15.8984 38.9997 15.8984 38.9997 17.5446C38.9997 18.3888 38.8187 18.423 36.9455 18.7908C33.9888 19.3375 33.8823 20.9817 33.7778 22.1535C33.5928 24.4951 33.5566 25.9965 33.5225 29.8717C33.4863 31.1903 33.4864 31.337 33.016 31.4074C32.4912 31.4693 31.9625 31.4942 31.4341 31.4818C30.2824 31.4818 30.1016 31.4817 30.1016 30.531C30.1016 26.3262 30.3569 17.0642 30.4252 16.7044C30.5016 16.409 30.6081 16.409 31.4724 16.409C31.7216 16.409 32.8793 16.3387 33.0924 16.3387C33.5587 16.3387 33.5587 16.6643 33.5587 17.3597L33.5547 18.7506Z" fill="white"/>
<path d="M16.0304 23.4285C15.9136 24.1865 15.9608 24.9608 16.1687 25.6991C16.3767 26.4374 16.7407 27.1225 17.2361 27.7081C17.7314 28.2937 18.3465 28.7663 19.04 29.0939C19.7336 29.4215 20.4894 29.5965 21.2564 29.6071C22.8965 29.4875 24.4638 28.8822 25.7587 27.8685C26.3355 27.4363 26.4078 27.364 26.6249 27.364C26.9123 27.364 26.9485 28.7388 26.9485 28.9197C26.9485 29.4584 26.1587 29.9649 25.616 30.3267C24.0707 31.3989 22.2367 31.9778 20.3559 31.9869C18.2941 32 16.3102 31.2002 14.8339 29.7608C13.3576 28.3214 12.5078 26.3583 12.4688 24.2968C12.5293 22.0349 13.4852 19.8894 15.1265 18.3318C16.7677 16.7742 18.9601 15.9318 21.2221 15.9896C22.3264 15.9271 23.4251 16.1869 24.3843 16.7376C25.3435 17.2882 26.122 18.1059 26.6249 19.091C27.0678 20.0817 27.3005 21.1534 27.3084 22.2385C27.3084 23.3179 27.1998 23.4988 25.8692 23.4988C24.9687 23.4988 21.0453 23.4285 20.2514 23.4285H16.0304ZM21.0011 17.7222C19.932 17.7904 18.9114 18.1931 18.0839 18.8735C17.2564 19.5538 16.6638 20.4772 16.3902 21.513C17.3952 21.5511 23.4492 21.4768 24.4301 21.4024C24.4604 20.9334 24.3948 20.463 24.2372 20.0202C24.0796 19.5774 23.8335 19.1714 23.5136 18.8269C23.1938 18.4824 22.8072 18.2068 22.3773 18.0169C21.9473 17.8269 21.4831 17.7267 21.0131 17.7222" fill="white"/>
<path d="M11.9311 30.1446C11.8802 29.8428 11.7904 29.5489 11.6638 29.2703C11.5613 29.0512 11.3804 29.0693 11.0889 29.218C10.3508 29.6442 9.51707 29.8772 8.66493 29.8954C6.25297 29.9295 5.65005 28.207 5.5998 25.2966C5.56563 23.4876 5.73045 21.2927 5.90331 19.0436C7.88916 18.9752 9.87089 18.9169 10.7754 18.9049C11.0025 18.9049 11.2035 18.7883 11.2256 18.4305C11.2437 18.1652 11.2658 17.5542 11.2658 17.2245C11.2658 16.7562 11.2196 16.5813 10.8056 16.5813C10.0619 16.5813 8.0941 16.6818 6.10021 16.7944C6.22081 15.5884 6.38763 13.9222 6.40371 13.4719C6.41979 13.0217 6.31123 12.7704 5.67206 12.8689C4.98444 13.0148 4.30595 13.2007 3.64 13.4257C2.96465 13.6568 2.88021 13.8076 2.78775 14.9774C2.74153 15.5522 2.67324 16.2417 2.58681 17.0054C1.82302 17.0537 1.23002 17.0959 0.950639 17.118C0.516485 17.1502 0.287367 17.1944 0.190888 17.5742C0.0862245 17.9536 0.0222742 18.3431 0 18.736C0 19.0596 0.134571 19.2928 0.679273 19.2546C0.986798 19.2345 1.58991 19.2023 2.35973 19.1722C2.13134 21.1234 2.00312 23.085 1.97574 25.0494C1.99383 29.3909 3.57168 31.7405 7.04692 31.9777C8.62684 32.105 10.2041 31.7018 11.5291 30.832C11.8407 30.6129 11.9774 30.416 11.9311 30.1346" fill="white"/>
</svg>